<?xml version="1.0" encoding="UTF-8" standalone="no"?>
<svg
   version="1.0"
   width="1024.000000pt"
   height="1024.000000pt"
   viewBox="0 0 1024.000000 1024.000000"
   preserveAspectRatio="xMidYMid meet"
   id="svg43"
   sodipodi:docname="sinkd-slim.svg"
   inkscape:version="1.4 (e7c3feb1, 2024-10-09)"
   xmlns:inkscape="http://www.inkscape.org/namespaces/inkscape"
   xmlns:sodipodi="http://sodipodi.sourceforge.net/DTD/sodipodi-0.dtd"
   xmlns="http://www.w3.org/2000/svg"
   xmlns:svg="http://www.w3.org/2000/svg">
  <defs
     id="defs43" />
  <sodipodi:namedview
     id="namedview43"
     pagecolor="#ffffff"
     bordercolor="#000000"
     borderopacity="0.25"
     inkscape:showpageshadow="2"
     inkscape:pageopacity="0.0"
     inkscape:pagecheckerboard="0"
     inkscape:deskcolor="#d1d1d1"
     inkscape:document-units="pt"
     showgrid="false"
     inkscape:zoom="1.3924993"
     inkscape:cx="644.88364"
     inkscape:cy="360.86195"
     inkscape:window-width="1472"
     inkscape:window-height="920"
     inkscape:window-x="0"
     inkscape:window-y="36"
     inkscape:window-maximized="0"
     inkscape:current-layer="svg43" />
  <metadata
     id="metadata1">
Created by potrace 1.16, written by Peter Selinger 2001-2019
</metadata>
  <g
     transform="translate(0.000000,1024.000000) scale(0.100000,-0.100000)"
     fill="#000000"
     stroke="none"
     id="g43">
    <path
       id="path1"
       d="M 5046.3574 9246.0742 C 5019.3105 9245.6211 4996 9244.0059 4980 9241.0059 C 4866 9219.0059 4725.002 9156.001 4627.002 9081.001 C 4522.002 9002.001 4420.9932 8846.0039 4377.9932 8694.0039 C 4349.9932 8593.0039 4347.9941 8427.001 4373.9941 8331.001 C 4435.9941 8105.001 4595.001 7915 4811.001 7810 L 4855.0049 7787.998 L 4859.0039 7281.9971 L 4863.0029 6775.9961 L 4822.998 6811.0059 C 4800.998 6830.0059 4748.001 6881.9961 4706.001 6925.9961 L 4630.0049 7007.998 L 4650 7052.998 C 4661 7077.998 4667.0039 7105.9971 4664.0039 7116.9971 C 4643.0039 7180.9971 4607.9951 7210 4549.9951 7210 C 4483.9951 7210 4441 7166.9932 4440 7102.9932 C 4440 7049.9932 4479 7002.0059 4530 6991.0059 C 4558 6986.0059 4589.002 6957.0049 4702.002 6830.0049 C 4831.002 6686.0049 4840.0049 6673.0049 4840.0049 6635.0049 C 4840.0049 6597.0049 4842.999 6600.002 4893.999 6707.002 C 4951.999 6826.002 5022.0059 6938.002 5046.0059 6947.002 C 5058.0059 6951.002 5059.9951 7027.0039 5059.9951 7434.0039 L 5056.4355 7888.252 A 116.55024 116.55024 0 0 0 4980.4834 7997.1924 A 116.55024 116.55024 0 0 0 5097.041 8113.7354 A 116.55024 116.55024 0 0 0 5213.584 7997.1924 A 116.55024 116.55024 0 0 0 5137.793 7888.0176 L 5138.9941 7543.999 L 5140.0049 7078.0029 L 5239.9951 7182.0068 L 5339.0039 7285 L 5340 7542.0068 L 5340 7798.999 L 5412.9932 7833.9941 C 5611.9932 7930.9941 5752.9961 8099 5820.9961 8320 C 5850.9961 8415 5853.0059 8580.0039 5826.0059 8679.0039 C 5755.0059 8942.0039 5546.0039 9155.999 5294.0039 9223.999 C 5242.2539 9238.249 5127.498 9247.4336 5046.3574 9246.0742 z M 5085.7178 8970.1562 C 5123.4365 8971.375 5161.4941 8967.7441 5198.9941 8958.9941 C 5364.9941 8920.9941 5509.001 8776.998 5546.001 8612.998 C 5586.001 8429.998 5523.0039 8245.0068 5384.0039 8142.0068 L 5327.0068 8099.9951 L 5306.9971 8140.9961 C 5284.9971 8185.9961 5227.9932 8232.0059 5172.9932 8251.0059 C 5153.9932 8257.0059 5108.999 8259.9932 5073.999 8257.9932 C 5023.999 8254.9932 4990.7236 8242.7939 4956.7236 8218.7939 C 4920.7236 8193.7939 4891.0068 8145.001 4877.0068 8106.001 C 4871.0068 8090.001 4803 8138.998 4755 8192.998 C 4636 8327.998 4605.9951 8501.998 4669.9951 8672.998 C 4695.9951 8739.998 4718.0049 8773.0059 4780.0049 8836.0059 C 4862.5049 8919.2559 4972.5615 8966.5 5085.7178 8970.1562 z " />
    <path
       d="M3932 8228 c-27 -30 -43 -73 -35 -95 10 -29 45 -63 65 -63 10 0 22 -8 25 -17 4 -10 35 -66 69 -126 57 -97 61 -108 44 -117 -22 -12 -50 -80 -50 -121 0 -68 51 -134 124 -160 l35 -13 3 -197 c3 -166 6 -200 20 -215 9 -11 18 -30 20 -43 1 -13 12 -30 23 -37 18 -12 24 -11 43 2 30 21 28 58 -5 84 l-28 22 -3 196 -3 197 31 20 c68 43 97 135 66 208 -25 61 -115 115 -172 104 -22 -4 -31 6 -90 105 l-65 109 21 26 c49 63 5 153 -75 153 -30 0 -47 -6 -63 -22z"
       id="path4" />
    <path
       d="m 6139,8221 c -35,-36 -39,-86 -9,-124 l 20,-25 -65,-105 c -65,-104 -65,-104 -109,-109 -68,-8 -117,-38 -143,-88 -40,-75 -23,-155 44,-208 l 33,-27 v -199 -198 l -31,-40 c -27,-34 -30,-42 -21,-64 20,-43 82,-27 82,21 0,12 9,30 20,40 18,16 20,33 22,224 l 3,205 42,9 c 56,11 109,69 118,129 7,49 -11,107 -45,143 -19,21 -19,22 51,138 50,84 77,119 94,123 33,8 56.5766,33.5488 63.9902,62.4059 8.369,32.5766 -2.0379,76.8963 -29.3367,96.5446 C 6241.5856,8252.3499 6182,8264 6139,8221 Z"
       id="path5"
       sodipodi:nodetypes="ccccccccccccsccccccccaac" />
    <path
       d="M3597 7835 c-141 -50 -151 -236 -16 -305 21 -11 47 -20 59 -20 19 0 20 -6 20 -154 0 -171 -4 -159 84 -253 24 -27 30 -42 30 -81 1 -28 8 -59 19 -75 22 -34 74 -67 105 -67 22 0 22 -1 22 -161 l0 -160 210 -213 210 -213 0 -146 0 -146 46 -53 c115 -131 348 -358 368 -358 3 0 6 19 6 43 0 40 -4 46 -45 77 -47 36 -257 254 -287 299 -15 22 -18 50 -18 171 l0 144 -210 211 -210 211 0 151 0 152 29 20 c37 27 66 99 57 142 -21 105 -145 162 -229 105 l-35 -24 -41 42 -41 42 0 155 0 155 36 33 c43 41 54 67 54 129 0 108 -118 185 -223 147z"
       id="path10" />
    <path
       d="M6499 7841 c-69 -22 -119 -91 -119 -162 1 -46 33 -114 64 -134 l26 -17 0 -153 0 -153 -36 -44 c-20 -23 -38 -45 -40 -47 -1 -2 -15 6 -29 18 -58 45 -152 36 -199 -20 -56 -66 -54 -146 4 -212 26 -31 27 -37 34 -181 l6 -149 -210 -212 -210 -211 0 -158 0 -158 -217 -219 c-119 -121 -220 -219 -225 -219 -5 0 -7 90 -6 199 3 228 6 224 -75 101 -59 -91 -93 -165 -112 -245 -16 -66 -21 -315 -6 -315 5 0 14 7 21 16 8 8 61 52 119 96 58 45 131 104 161 132 65 60 310 319 369 391 l41 50 0 149 0 150 210 211 210 212 0 161 0 162 34 0 c25 0 44 9 69 33 36 33 63 103 53 135 -4 12 12 37 49 77 l54 60 1 161 0 161 38 7 c50 8 98 39 123 78 44 71 7 193 -70 233 -37 19 -99 26 -132 16z"
       id="path11" />
    <g
       id="g45" />
    <path
       d="M2714 7286 c-30 -30 -34 -40 -34 -86 0 -89 55 -138 144 -128 l44 5 86 -93 c62 -67 86 -100 86 -119 0 -17 7 -28 23 -34 32 -13 57 4 57 39 0 32 -24 64 -143 186 -61 63 -68 74 -58 92 24 46 5 112 -45 151 -19 15 -41 21 -76 21 -43 0 -54 -4 -84 -34z"
       id="path20" />
    <path
       d="M7334 7301 c-42 -26 -58 -69 -50 -135 l6 -54 -110 -115 c-109 -114 -125 -142 -95 -167 21 -18 48 -8 63 23 7 15 54 70 104 122 89 94 91 95 138 95 96 0 161 83 129 166 -28 74 -118 106 -185 65z"
       id="path21" />
    <path
       d="M5569 7181 c-24 -25 -29 -38 -29 -78 0 -28 7 -58 16 -71 15 -22 13 -26 -55 -107 l-71 -84 0 -72 0 -72 41 64 c23 35 70 100 105 145 48 62 71 83 94 88 47 9 90 57 90 100 0 75 -42 116 -120 116 -33 0 -48 -6 -71 -29z"
       id="path22" />
    <path
       d="M3300 7148 c-51 -35 -73 -71 -78 -130 -3 -44 0 -59 20 -88 33 -48 84 -80 127 -80 38 0 45 -8 159 -162 13 -17 -7 -18 -406 -18 l-420 0 -11 44 c-34 137 -196 191 -294 98 -88 -83 -78 -210 21 -277 72 -49 193 -28 238 40 l16 25 463 0 463 0 70 -72 c39 -40 89 -96 113 -124 41 -49 43 -50 73 -40 18 6 34 14 36 17 3 4 -56 74 -131 155 -76 82 -171 191 -212 242 l-76 93 32 45 c78 111 8 254 -123 254 -32 0 -57 -7 -80 -22z"
       id="path23" />
    <path
       d="M6765 7161 c-28 -13 -72 -61 -84 -94 -23 -59 -12 -107 36 -159 l25 -27 -59 -73 c-33 -40 -100 -117 -149 -171 -156 -171 -224 -249 -224 -257 0 -3 15 -11 33 -17 l34 -10 112 123 112 124 463 0 462 0 30 -31 c53 -56 117 -77 183 -59 80 21 133 89 133 170 0 143 -160 228 -278 148 -34 -23 -84 -106 -84 -140 0 -17 -22 -18 -420 -18 -231 0 -420 3 -420 6 0 3 30 44 67 90 64 81 68 84 108 84 148 0 197 200 72 294 -29 21 -119 32 -152 17z"
       id="path24" />
    <path
       d="M5305 7115 c-11 -13 -53 -61 -92 -107 l-73 -83 0 -511 0 -510 -24 -50 c-13 -27 -29 -67 -37 -89 -13 -37 -14 -26 -21 175 -4 118 -5 364 -2 545 l5 330 -20 -25 c-41 -50 -141 -266 -163 -350 -20 -82 -21 -105 -22 -682 -1 -329 -3 -598 -5 -598 -23 0 -330 297 -460 445 -58 66 -207 265 -298 397 l-41 60 19 32 c25 41 25 111 -1 153 -73 121 -276 57 -274 -87 1 -81 59 -140 140 -140 27 0 46 -6 56 -17 17 -20 169 -256 187 -290 l12 -23 -104 0 -105 0 -25 53 c-31 61 -68 87 -127 87 -56 0 -96 -26 -121 -78 -34 -70 -13 -142 54 -182 58 -36 145 -20 179 32 15 23 17 23 160 18 l146 -5 146 -197 145 -198 -242 0 -242 1 -210 204 -210 205 -77 0 c-71 0 -77 2 -83 23 -19 59 -90 97 -149 77 -49 -16 -77 -51 -83 -103 -9 -76 43 -127 128 -127 33 0 47 6 73 33 32 31 35 32 98 27 l66 -5 176 -164 c97 -90 176 -168 176 -173 0 -4 -144 -8 -320 -8 l-321 0 -132 135 -133 135 -112 0 -112 0 -19 38 c-24 46 -67 72 -121 72 -79 0 -133 -52 -133 -130 0 -56 28 -99 80 -122 64 -28 106 -18 160 38 l43 44 87 0 87 0 115 -112 c64 -62 117 -116 119 -119 2 -4 -30 -42 -71 -85 -72 -76 -75 -78 -101 -66 -86 39 -166 -11 -166 -103 0 -52 53 -105 104 -105 70 0 126 50 126 112 0 16 28 51 88 111 l87 87 510 0 c297 0 537 -4 575 -10 167 -27 348 -176 400 -330 l17 -51 64 88 c35 48 90 118 121 155 l58 67 0 183 c0 203 11 270 59 385 44 108 106 195 226 323 139 147 272 303 387 452 85 110 94 118 126 118 73 0 143 60 158 137 15 75 -75 173 -158 173 -111 0 -185 -112 -140 -213 11 -24 25 -48 31 -51 14 -9 -4 -36 -128 -186 -89 -108 -257 -291 -273 -298 -5 -2 -8 235 -8 527 0 292 -3 531 -7 530 -5 0 -17 -11 -28 -24z"
       id="path25" />
    <path
       d="M4260 6811 c-49 -26 -83 -93 -77 -150 8 -76 77 -141 151 -141 40 -1 43 -3 141 -122 129 -157 264 -308 274 -308 4 0 9 26 10 58 2 53 0 59 -28 79 -23 18 -205 217 -280 306 -13 16 -12 21 9 49 31 42 38 114 15 162 -37 78 -137 109 -215 67z"
       id="path26" />
    <path
       d="m 6178,6295 c -31,-17 -63,-67 -73,-113 -5,-23 -1,-44 15,-78 l 22,-45 -28,-42 c -59,-90 -289,-390 -358,-467 -93,-104 -231,-229 -375,-338 -274,-208 -439,-404 -571,-677 -66,-137 -112,-275 -130,-388 -13,-80 -8,-333 7,-393 8,-29 11,-23 72,105 294,619 374,754 543,917 143,138 293,256 381,301 27,13 83,33 125,44 69,18 114,19 578,19 h 503 l 85,-85 c 66,-67 86,-93 91,-123 11,-63 56,-102 118,-102 54,0 107,52 107,105 0,44 -24,88 -57,106 -32,17 -90,15 -112,-5 -16,-14 -23,-10 -96,65 l -80,80 122,119 121,120 h 95 95 l 22,-34 c 29,-48 96,-73 149,-57 110,32 139,156 55,230 -30,26 -43,31 -89,31 -59,0 -102,-26 -127,-77 -13,-26 -14,-26 -122,-24 l -108,2 -142,-140 -142,-141 h -312 c -172,0 -312,3 -312,8 1,4 76,83 169,175 l 167,169 61,-1 c 51,0 65,-4 88,-25 52,-49 136,-46 180,6 44,52 45,100 5,151 -46,58 -141,53 -188,-9 -12,-16 -27,-35 -32,-41 -7,-8 -37,-13 -79,-13 h -69 l -206,-211 -205,-212 -47,7 c -26,3 -134,6 -240,6 h -194 l 63,78 c 34,42 99,132 144,198 l 82,121 133,5 133,6 30,-29 c 54,-51 119,-62 182,-32 129,61 73,263 -72,263 -67,0 -115,-43 -139,-122 -5,-16 -19,-18 -107,-18 -55,0 -99,4 -97,8 2,5 48,79 103,165 97,152 101,156 135,157 87,1 160,66 160,144 0,105 -136,182 -232,131 z"
       id="path33"
       sodipodi:nodetypes="csccccccccccccscccsscccccccccccscscccscccccscccsccccsccccccccscscccsc" />
    <path
       d="M3369 6255 c-95 -52 -75 -200 30 -222 33 -7 50 -22 116 -103 92 -115 102 -123 126 -109 30 15 23 56 -14 92 -19 18 -55 56 -82 84 l-47 52 26 31 c82 99 -41 237 -155 175z"
       id="path34" />
    <path
       d="M6724 6260 c-30 -12 -62 -56 -70 -95 -4 -25 0 -44 17 -74 l22 -40 -79 -88 c-44 -48 -84 -94 -88 -100 -10 -18 11 -53 32 -53 10 0 59 49 112 110 57 67 101 110 112 110 52 0 118 66 118 118 0 37 -28 86 -59 105 -31 18 -82 21 -117 7z"
       id="path35" />
    <path
       d="M2155 6118 c-69 -24 -115 -93 -115 -172 0 -81 33 -134 105 -167 93 -43 196 -4 246 94 l19 37 159 0 159 0 12 -35 c36 -108 199 -150 286 -73 47 42 64 77 64 138 0 106 -76 180 -187 180 -25 0 -61 -8 -80 -17 -39 -18 -93 -85 -93 -115 0 -16 -9 -18 -73 -18 -41 0 -115 3 -165 6 l-90 7 -18 39 c-37 83 -142 126 -229 96z"
       id="path36" />
    <path
       d="M7226 6120 c-37 -12 -85 -56 -102 -97 -23 -52 -18 -130 11 -179 42 -72 140 -103 218 -71 35 15 107 89 107 111 0 22 42 27 192 25 l140 -2 9 -26 c24 -62 110 -121 176 -121 51 1 113 30 146 69 90 107 8 287 -135 298 -77 6 -134 -26 -168 -95 l-25 -51 -166 0 -166 -1 -18 41 c-22 48 -64 83 -120 98 -46 13 -59 13 -99 1z"
       id="path37" />
    <path
       d="m 2210,5143 c -27,-61 -84,-255 -105,-356 -62,-310 -60,-790 5,-1089 26,-120 82,-284 136,-398 43,-91 172,-296 180,-287 2,2 18,59 34,126 29,117 85,271 98,271 4,0 18,-21 32,-46 38,-73 166,-262 228,-338 310,-380 688,-676 1332,-1046 146,-83 282,-163 302,-176 l 38,-24 6,27 c 29,136 111,328 198,463 84,129 263,308 436,437 148,110 394,229 647,312 153,50 201,71 160,71 -7,0 -46,16 -87,36 -113,54 -222,169 -288,302 l -49,101 -53,-89 c -63,-107 -133,-196 -244,-311 -62.9005,-67.4436 -131.4597,-133.2704 -213.554,-195.23 C 4795.446,2760.77 4479,2659 4226,2673 c -79,4 -281,39 -292,50 -1,1 57,2 129,3 392,3 740,136 1014,391 89,82 202,214 268,313 117,175 173,334 181,515 4,109 4,110 -10,59 -79,-276 -232,-545 -422,-743 -168,-176 -309,-272 -513,-352 -157,-61 -274,-82 -466,-83 -185,0 -297,17 -452,69 -527,176 -1005,703 -1223,1349 -28,82 -49,150 -47,152 1,2 20,-38 41,-89 79,-190 267,-502 411,-682 144,-181 341,-369 490,-469 39,-26 120,-72 180,-101 189,-93 373,-135 591,-135 334,0 627,117 864,346 l 90,87 -2,447 -3,448 -27,-47 c -15,-25 -78,-154 -139,-286 -61,-132 -136,-294 -167,-360 -71,-153 -124,-235 -196,-307 -69,-69 -136,-108 -236,-140 -63,-19 -96,-23 -210,-23 -149,1 -255,23 -405,86 -192,80 -452,296 -616,514 -34,46 -40,58 -28,66 32,20 342,145 459,185 8,3 -10,16 -45,32 -111,49 -299,154 -414,229 -199,132 -391,323 -530,527 -73,107 -251,421 -251,443 0,31 -21,19 -40,-24 z"
       id="path40"
       sodipodi:nodetypes="ccccccscscccccccscccccccscccccccccccccccscccccscscccccccccsc" />
    <path
       d="m 7893,5062 c -121,-249 -256,-444 -423,-612 -173,-174 -390,-325 -642,-448 -65,-31 -118,-60 -118,-63 0,-3 26,-13 58,-23 77,-25 412,-167 412,-176 0,-3 -35,-49 -78,-101 -168,-202 -353,-349 -566,-450 -60,-28 -273,-106 -475,-174 -393,-132 -488,-168 -651,-250 -315,-158 -594,-425 -734,-702 -44,-88 -82,-199 -94,-275 l -9,-56 42,-36 c 44,-36 55,-37 55,-4 0,24 53,177 75,214 15,27 16,27 9,4 -3,-14 -8,-89 -11,-167 l -5,-142 103,-108 c 57,-59 130,-146 161,-192 l 57,-83 -6,208 c -9,313 11,447 91,615 46,99 106,182 190,264 149,146 318,245 656,385 377,157 439,184 556,246 315,166 548,358 766,632 198,248 383,557 473,790 53,136 37,63 -25,-115 -78,-224 -173,-421 -285,-588 -117,-174 -178,-249 -311,-381 -260,-259 -503,-409 -964,-599 -474,-195 -550,-233 -695,-340 -175,-129 -313,-329 -351,-504 -19,-92 -26,-278 -17,-460 l 8,-154 39,59 c 106,159 242,298 401,409 55,39 229,147 387,242 594,356 890,568 1162,833 199,194 320,346 456,574 l 54,89 32,-89 c 17,-49 44,-138 59,-199 15,-60 29,-112 32,-115 10,-11 132,169 181,266 43,85 106,273 130,385 49,225 57,312 57,599 -1,302 -12,397 -75,637 -33,125 -88,283 -98,283 -4,-1 -35,-58 -69,-128 z"
       id="path41"
       sodipodi:nodetypes="cccscsccccccccsccccccccccccccccccccccccccccccccccccc" />
    <path
       d="M3952 4929 c-45 -23 -77 -59 -87 -102 l-7 -27 -147 0 -146 0 -17 30 c-32 56 -117 76 -175 40 -64 -39 -88 -111 -57 -175 47 -99 194 -100 241 0 l17 35 138 0 138 0 19 -37 c35 -68 104 -113 173 -113 70 1 159 65 174 126 6 24 6 24 143 24 154 0 196 -12 245 -71 32 -38 44 -64 61 -134 l12 -50 39 79 39 78 -59 54 c-33 29 -83 66 -110 81 -49 27 -58 28 -208 31 -119 3 -158 7 -158 16 0 7 -14 32 -31 55 -55 76 -153 101 -237 60z"
       id="path42" />
    <path
       d="M6072 4929 c-43 -22 -74 -56 -92 -103 l-10 -26 -147 0 c-134 0 -153 -2 -198 -24 -62 -29 -129 -100 -162 -173 -20 -44 -26 -76 -30 -161 -5 -101 -8 -112 -47 -187 l-41 -80 -3 95 c-2 52 -2 168 0 258 2 89 0 161 -4 160 -13 -6 -105 -127 -153 -204 l-50 -79 5 -463 5 -463 26 28 c46 50 90 122 146 241 108 229 171 454 183 653 8 140 24 189 81 254 56 64 93 75 255 75 142 0 142 0 148 -24 15 -59 104 -125 169 -126 63 0 152 60 178 121 l11 29 142 0 142 0 13 -35 c17 -47 59 -75 115 -77 105 -2 170 111 116 199 -53 88 -161 94 -222 13 l-22 -30 -143 0 -143 0 -19 38 c-52 101 -153 138 -249 91z"
       id="path43" />
  </g>
</svg>
