<?xml version="1.0" encoding="UTF-8" standalone="no"?>
<!-- Created with Inkscape (http://www.inkscape.org/) -->

<svg
   xmlns:dc="http://purl.org/dc/elements/1.1/"
   xmlns:cc="http://creativecommons.org/ns#"
   xmlns:rdf="http://www.w3.org/1999/02/22-rdf-syntax-ns#"
   xmlns:svg="http://www.w3.org/2000/svg"
   xmlns="http://www.w3.org/2000/svg"
   xmlns:sodipodi="http://sodipodi.sourceforge.net/DTD/sodipodi-0.dtd"
   xmlns:inkscape="http://www.inkscape.org/namespaces/inkscape"
   id="svg3387"
   version="1.1"
   inkscape:version="0.91 r13725"
   width="900"
   height="1200"
   viewBox="0 0 900 1200"
   sodipodi:docname="sinkdLogo_v1.5.svg">
  <metadata
     id="metadata3393">
    <rdf:RDF>
      <cc:Work
         rdf:about="">
        <dc:format>image/svg+xml</dc:format>
        <dc:type
           rdf:resource="http://purl.org/dc/dcmitype/StillImage" />
        <dc:title />
      </cc:Work>
    </rdf:RDF>
  </metadata>
  <defs
     id="defs3391" />
  <sodipodi:namedview
     pagecolor="#ffffff"
     bordercolor="#666666"
     borderopacity="1"
     objecttolerance="10"
     gridtolerance="10"
     guidetolerance="10"
     inkscape:pageopacity="0"
     inkscape:pageshadow="2"
     inkscape:window-width="2560"
     inkscape:window-height="1389"
     id="namedview3389"
     showgrid="false"
     inkscape:zoom="1.9327586"
     inkscape:cx="365.6193"
     inkscape:cy="612.70335"
     inkscape:window-x="1080"
     inkscape:window-y="267"
     inkscape:window-maximized="1"
     inkscape:current-layer="svg3387" />
  <path
     style="fill:#000000"
     d="m 432.47165,323.34475 c -25.66098,-0.24485 -46.66137,20.35983 -46.90465,46.02083 -0.12671,13.63779 5.74551,26.64243 16.05896,35.56645 l -0.48795,122.69208 c -31.67679,-2.14074 -48.31103,-13.06775 -48.43257,-43.90036 10.30244,-8.71228 16.30897,-21.47264 16.45827,-34.96419 0.24376,-25.65948 -20.35943,-46.65834 -46.01889,-46.90268 -25.65948,-0.24376 -46.65834,20.35943 -46.90268,46.01889 -0.11663,14.61754 6.65258,28.43772 18.27297,37.30634 2.92285,75.63418 55.81327,96.19774 105.99648,103.99155 -0.0778,11.29254 0.86843,35.23091 0.58867,61.1197 -10.84407,8.71319 -17.21364,21.82675 -17.35825,35.73692 -0.0921,11.58945 4.15047,22.79493 11.8951,31.41728 23.15844,30.91249 -39.76378,21.86793 -65.38816,8.94726 -42.73505,-21.54844 -43.42267,-30.19975 -23.45306,-49.9637 -20.08885,-20.81327 -62.11132,-36.18459 -94.51649,-38.00009 -10.28969,49.27327 -2.41503,83.12714 10.079,111.1891 34.13698,-28.45315 27.78122,13.77207 86.19217,41.74724 51.9335,24.87287 92.09262,7.09452 123.85914,64.09442 33.80243,-56.83737 51.17156,-30.70043 120.59062,-65.0623 53.72848,-26.59516 62.76183,-62.18938 83.49881,-32.96902 18.2109,-28.02804 31.48952,-60.04659 27.68166,-113.09912 -34.01347,1.26046 -58.3224,7.17184 -93.17358,26.96041 22.58091,25.33052 -1.77923,38.04232 -36.46422,54.60608 -30.88887,14.75093 -93.34031,20.95484 -68.15402,-10.36341 6.53883,-8.11734 10.1583,-18.1976 10.27656,-28.62035 0.12685,-13.65241 -5.75756,-26.66961 -16.08994,-35.59409 -0.003,-3.28365 0.0162,-6.0654 0.0201,-8.06853 48.24897,-2.29163 103.28976,-47.96768 109.67018,-113.07146 13.44725,-8.40704 21.67778,-23.09216 21.83042,-38.95039 0.24376,-25.65948 -20.35943,-46.65835 -46.0189,-46.90268 -25.65947,-0.24377 -46.65835,20.35943 -46.90269,46.01889 -0.12008,13.98218 6.06306,27.27498 16.8343,36.19104 -2.17686,24.71129 -12.27534,50.47101 -55.5938,54.08853 l 0.90615,-174.80331 c 10.72922,-8.7136 17.02204,-21.75164 17.16917,-35.5727 0.24484,-25.66022 -20.35865,-46.66028 -46.01888,-46.90463 z m -0.50508,13.89196 c 16.97168,0.1621 30.59861,14.05162 30.4368,31.0233 -0.16209,16.97091 -14.05042,30.59754 -31.02135,30.43681 -16.97168,-0.16103 -30.5995,-14.04967 -30.43876,-31.02136 0.16104,-16.97245 14.05088,-30.60056 31.02331,-30.43875 z m -108.55373,79.70397 c 16.97091,0.16209 30.59754,14.05042 30.43681,31.02135 -0.16103,16.97169 -14.04967,30.5995 -31.02136,30.43876 -16.97245,-0.16103 -30.60056,-14.05087 -30.43875,-31.02331 0.1621,-16.97168 14.05162,-30.59861 31.0233,-30.4368 z m 222.15253,43.47206 c 16.97245,0.16104 30.60056,14.05088 30.43874,31.02332 -0.16103,16.97244 -14.05087,30.60056 -31.02331,30.43874 -16.97168,-0.1621 -30.5986,-14.05162 -30.4368,-31.02329 0.16103,-16.97169 14.04968,-30.59951 31.02137,-30.43877 z M 430.66484,656.1705 c 16.97244,0.16104 30.60056,14.05088 30.43874,31.02332 -0.16209,16.97167 -14.05161,30.5986 -31.02329,30.43679 -16.97169,-0.16103 -30.5995,-14.04967 -30.43877,-31.02136 0.16104,-16.97245 14.05088,-30.60056 31.02332,-30.43875 z"
     id="path3397"
     inkscape:connector-curvature="0"
     sodipodi:nodetypes="cccccccccccccscccscscccsccccccccccccccccccccccccccccccccc"
     inkscape:transform-center-x="-6.2087423"
     inkscape:transform-center-y="5.1739517" />
</svg>
