<?xml version="1.0" standalone="no"?>
<!DOCTYPE svg PUBLIC "-//W3C//DTD SVG 20010904//EN"
 "http://www.w3.org/TR/2001/REC-SVG-20010904/DTD/svg10.dtd">
<svg version="1.0" xmlns="http://www.w3.org/2000/svg"
 width="1024.000000pt" height="1024.000000pt" viewBox="0 0 1024.000000 1024.000000"
 preserveAspectRatio="xMidYMid meet">
<metadata>
Created by potrace 1.16, written by Peter Selinger 2001-2019
</metadata>
<g transform="translate(0.000000,1024.000000) scale(0.100000,-0.100000)"
fill="#000000" stroke="none">
<path d="M4980 9241 c-114 -22 -255 -85 -353 -160 -105 -79 -206 -235 -249
-387 -28 -101 -30 -267 -4 -363 62 -226 221 -416 437 -521 l44 -22 4 -506 4
-506 -40 35 c-22 19 -75 71 -117 115 l-76 82 20 45 c11 25 17 53 14 64 -21 64
-56 93 -114 93 -66 0 -109 -43 -110 -107 0 -53 39 -101 90 -112 28 -5 59 -34
172 -161 129 -144 138 -157 138 -195 0 -38 3 -35 54 72 58 119 128 231 152
240 12 4 14 80 14 487 l0 483 31 62 c28 56 41 68 45 40 1 -5 2 -219 3 -475 l1
-466 100 104 99 103 1 257 0 257 73 35 c199 97 340 265 408 486 30 95 32 260
5 359 -71 263 -280 477 -532 545 -69 19 -250 29 -314 17z m219 -282 c166 -38
310 -182 347 -346 40 -183 -23 -368 -162 -471 l-57 -42 -20 41 c-22 45 -79 91
-134 110 -19 6 -64 9 -99 7 -50 -3 -72 -10 -106 -34 -36 -25 -77 -79 -91 -118
-6 -16 -74 33 -122 87 -119 135 -149 309 -85 480 26 67 48 100 110 163 110
111 269 158 419 123z"/>
<path d="M6534 8583 c-30 -6 -64 -45 -73 -85 -10 -42 2 -84 30 -114 32 -35
106 -34 148 2 89 75 11 221 -105 197z"/>
<path d="M3557 8560 c-34 -27 -48 -79 -36 -125 14 -48 51 -75 106 -75 38 0 50
5 79 34 24 24 34 43 34 65 0 39 -23 85 -52 105 -32 23 -100 20 -131 -4z"/>
<path d="M3932 8228 c-27 -30 -43 -73 -35 -95 10 -29 45 -63 65 -63 10 0 22
-8 25 -17 4 -10 35 -66 69 -126 57 -97 61 -108 44 -117 -22 -12 -50 -80 -50
-121 0 -68 51 -134 124 -160 l35 -13 3 -197 c3 -166 6 -200 20 -215 9 -11 18
-30 20 -43 1 -13 12 -30 23 -37 18 -12 24 -11 43 2 30 21 28 58 -5 84 l-28 22
-3 196 -3 197 31 20 c68 43 97 135 66 208 -25 61 -115 115 -172 104 -22 -4
-31 6 -90 105 l-65 109 21 26 c49 63 5 153 -75 153 -30 0 -47 -6 -63 -22z"/>
<path d="M6139 8221 c-35 -36 -39 -86 -9 -124 l20 -25 -65 -105 c-65 -104 -65
-104 -109 -109 -68 -8 -117 -38 -143 -88 -40 -75 -23 -155 44 -208 l33 -27 0
-199 0 -198 -31 -40 c-27 -34 -30 -42 -21 -64 20 -43 82 -27 82 21 0 12 9 30
20 40 18 16 20 33 22 224 l3 205 42 9 c56 11 109 69 118 129 7 49 -11 107 -45
143 -19 21 -19 22 51 138 50 84 77 119 94 123 33 8 55 35 62 77 5 32 1 41 -30
72 -46 46 -95 49 -138 6z"/>
<path d="M3547 8109 c-32 -44 14 -94 59 -64 28 18 31 46 8 69 -21 22 -50 20
-67 -5z"/>
<path d="M6582 8118 c-34 -34 6 -96 50 -79 33 13 42 38 23 67 -17 26 -53 32
-73 12z"/>
<path d="M3086 7994 c-23 -23 -20 -51 8 -69 45 -30 91 16 61 61 -18 28 -47 31
-69 8z"/>
<path d="M7052 7998 c-22 -22 -14 -67 13 -80 21 -9 28 -8 45 7 36 32 20 85
-25 85 -12 0 -26 -5 -33 -12z"/>
<path d="M3597 7835 c-141 -50 -151 -236 -16 -305 21 -11 47 -20 59 -20 19 0
20 -6 20 -154 0 -171 -4 -159 84 -253 24 -27 30 -42 30 -81 1 -28 8 -59 19
-75 22 -34 74 -67 105 -67 22 0 22 -1 22 -161 l0 -160 210 -213 210 -213 0
-146 0 -146 46 -53 c115 -131 348 -358 368 -358 3 0 6 19 6 43 0 40 -4 46 -45
77 -47 36 -257 254 -287 299 -15 22 -18 50 -18 171 l0 144 -210 211 -210 211
0 151 0 152 29 20 c37 27 66 99 57 142 -21 105 -145 162 -229 105 l-35 -24
-41 42 -41 42 0 155 0 155 36 33 c43 41 54 67 54 129 0 108 -118 185 -223 147z"/>
<path d="M6499 7841 c-69 -22 -119 -91 -119 -162 1 -46 33 -114 64 -134 l26
-17 0 -153 0 -153 -36 -44 c-20 -23 -38 -45 -40 -47 -1 -2 -15 6 -29 18 -58
45 -152 36 -199 -20 -56 -66 -54 -146 4 -212 26 -31 27 -37 34 -181 l6 -149
-210 -212 -210 -211 0 -158 0 -158 -217 -219 c-119 -121 -220 -219 -225 -219
-5 0 -7 90 -6 199 3 228 6 224 -75 101 -59 -91 -93 -165 -112 -245 -16 -66
-21 -315 -6 -315 5 0 14 7 21 16 8 8 61 52 119 96 58 45 131 104 161 132 65
60 310 319 369 391 l41 50 0 149 0 150 210 211 210 212 0 161 0 162 34 0 c25
0 44 9 69 33 36 33 63 103 53 135 -4 12 12 37 49 77 l54 60 1 161 0 161 38 7
c50 8 98 39 123 78 44 71 7 193 -70 233 -37 19 -99 26 -132 16z"/>
<path d="M4530 7552 c-40 -41 -41 -83 -1 -123 58 -58 141 -23 141 59 0 51 -25
81 -72 89 -32 5 -41 1 -68 -25z"/>
<path d="M5562 7570 c-43 -18 -57 -105 -22 -140 59 -59 150 -19 150 66 0 33
-51 84 -82 83 -13 0 -33 -4 -46 -9z"/>
<path d="M3017 7543 c-20 -5 -47 -52 -47 -81 0 -11 9 -31 21 -46 16 -21 29
-26 63 -26 49 0 72 19 82 68 5 26 1 36 -24 62 -29 29 -52 34 -95 23z"/>
<path d="M7123 7540 c-26 -11 -43 -40 -43 -74 0 -37 10 -55 39 -70 76 -40 158
57 104 123 -21 24 -68 35 -100 21z"/>
<path d="M6193 7498 c-29 -38 -21 -81 18 -93 27 -9 59 20 59 53 0 41 -55 69
-77 40z"/>
<path d="M3952 7488 c-20 -20 -14 -66 9 -79 33 -17 69 3 69 39 0 33 -16 52
-45 52 -12 0 -26 -5 -33 -12z"/>
<path d="M6755 7450 c-27 -29 -10 -74 28 -78 37 -4 57 13 57 49 0 47 -53 65
-85 29z"/>
<path d="M3381 7438 c-17 -45 39 -87 75 -58 17 15 18 52 2 68 -21 21 -68 15
-77 -10z"/>
<path d="M2714 7286 c-30 -30 -34 -40 -34 -86 0 -89 55 -138 144 -128 l44 5
86 -93 c62 -67 86 -100 86 -119 0 -17 7 -28 23 -34 32 -13 57 4 57 39 0 32
-24 64 -143 186 -61 63 -68 74 -58 92 24 46 5 112 -45 151 -19 15 -41 21 -76
21 -43 0 -54 -4 -84 -34z"/>
<path d="M7334 7301 c-42 -26 -58 -69 -50 -135 l6 -54 -110 -115 c-109 -114
-125 -142 -95 -167 21 -18 48 -8 63 23 7 15 54 70 104 122 89 94 91 95 138 95
96 0 161 83 129 166 -28 74 -118 106 -185 65z"/>
<path d="M5569 7181 c-24 -25 -29 -38 -29 -78 0 -28 7 -58 16 -71 15 -22 13
-26 -55 -107 l-71 -84 0 -72 0 -72 41 64 c23 35 70 100 105 145 48 62 71 83
94 88 47 9 90 57 90 100 0 75 -42 116 -120 116 -33 0 -48 -6 -71 -29z"/>
<path d="M3300 7148 c-51 -35 -73 -71 -78 -130 -3 -44 0 -59 20 -88 33 -48 84
-80 127 -80 38 0 45 -8 159 -162 13 -17 -7 -18 -406 -18 l-420 0 -11 44 c-34
137 -196 191 -294 98 -88 -83 -78 -210 21 -277 72 -49 193 -28 238 40 l16 25
463 0 463 0 70 -72 c39 -40 89 -96 113 -124 41 -49 43 -50 73 -40 18 6 34 14
36 17 3 4 -56 74 -131 155 -76 82 -171 191 -212 242 l-76 93 32 45 c78 111 8
254 -123 254 -32 0 -57 -7 -80 -22z"/>
<path d="M6765 7161 c-28 -13 -72 -61 -84 -94 -23 -59 -12 -107 36 -159 l25
-27 -59 -73 c-33 -40 -100 -117 -149 -171 -156 -171 -224 -249 -224 -257 0 -3
15 -11 33 -17 l34 -10 112 123 112 124 463 0 462 0 30 -31 c53 -56 117 -77
183 -59 80 21 133 89 133 170 0 143 -160 228 -278 148 -34 -23 -84 -106 -84
-140 0 -17 -22 -18 -420 -18 -231 0 -420 3 -420 6 0 3 30 44 67 90 64 81 68
84 108 84 148 0 197 200 72 294 -29 21 -119 32 -152 17z"/>
<path d="M5305 7115 c-11 -13 -53 -61 -92 -107 l-73 -83 0 -511 0 -510 -24
-50 c-13 -27 -29 -67 -37 -89 -13 -37 -14 -26 -21 175 -4 118 -5 364 -2 545
l5 330 -20 -25 c-41 -50 -141 -266 -163 -350 -20 -82 -21 -105 -22 -682 -1
-329 -3 -598 -5 -598 -23 0 -330 297 -460 445 -58 66 -207 265 -298 397 l-41
60 19 32 c25 41 25 111 -1 153 -73 121 -276 57 -274 -87 1 -81 59 -140 140
-140 27 0 46 -6 56 -17 17 -20 169 -256 187 -290 l12 -23 -104 0 -105 0 -25
53 c-31 61 -68 87 -127 87 -56 0 -96 -26 -121 -78 -34 -70 -13 -142 54 -182
58 -36 145 -20 179 32 15 23 17 23 160 18 l146 -5 146 -197 145 -198 -242 0
-242 1 -210 204 -210 205 -77 0 c-71 0 -77 2 -83 23 -19 59 -90 97 -149 77
-49 -16 -77 -51 -83 -103 -9 -76 43 -127 128 -127 33 0 47 6 73 33 32 31 35
32 98 27 l66 -5 176 -164 c97 -90 176 -168 176 -173 0 -4 -144 -8 -320 -8
l-321 0 -132 135 -133 135 -112 0 -112 0 -19 38 c-24 46 -67 72 -121 72 -79 0
-133 -52 -133 -130 0 -56 28 -99 80 -122 64 -28 106 -18 160 38 l43 44 87 0
87 0 115 -112 c64 -62 117 -116 119 -119 2 -4 -30 -42 -71 -85 -72 -76 -75
-78 -101 -66 -86 39 -166 -11 -166 -103 0 -52 53 -105 104 -105 70 0 126 50
126 112 0 16 28 51 88 111 l87 87 510 0 c297 0 537 -4 575 -10 167 -27 348
-176 400 -330 l17 -51 64 88 c35 48 90 118 121 155 l58 67 0 183 c0 203 11
270 59 385 44 108 106 195 226 323 139 147 272 303 387 452 85 110 94 118 126
118 73 0 143 60 158 137 15 75 -75 173 -158 173 -111 0 -185 -112 -140 -213
11 -24 25 -48 31 -51 14 -9 -4 -36 -128 -186 -89 -108 -257 -291 -273 -298 -5
-2 -8 235 -8 527 0 292 -3 531 -7 530 -5 0 -17 -11 -28 -24z"/>
<path d="M4260 6811 c-49 -26 -83 -93 -77 -150 8 -76 77 -141 151 -141 40 -1
43 -3 141 -122 129 -157 264 -308 274 -308 4 0 9 26 10 58 2 53 0 59 -28 79
-23 18 -205 217 -280 306 -13 16 -12 21 9 49 31 42 38 114 15 162 -37 78 -137
109 -215 67z"/>
<path d="M3375 6497 c-13 -10 -16 -21 -11 -40 8 -34 41 -44 67 -21 23 21 24
37 3 58 -19 20 -35 20 -59 3z"/>
<path d="M6762 6498 c-35 -35 15 -99 53 -68 30 25 12 80 -25 80 -9 0 -21 -5
-28 -12z"/>
<path d="M2870 6413 c-58 -74 38 -164 104 -97 26 25 20 79 -10 103 -36 29 -68
26 -94 -6z"/>
<path d="M7215 6415 c-29 -28 -32 -65 -7 -93 40 -47 122 -18 122 43 0 31 -41
75 -70 75 -11 0 -32 -11 -45 -25z"/>
<path d="M2515 6396 c-29 -29 -28 -64 2 -98 34 -38 105 -12 118 43 8 33 -20
67 -62 75 -26 5 -37 1 -58 -20z"/>
<path d="M7580 6400 c-27 -27 -26 -71 3 -98 27 -26 54 -28 84 -7 38 26 37 92
-1 117 -21 14 -66 8 -86 -12z"/>
<path d="M6178 6295 c-31 -17 -63 -67 -73 -113 -5 -23 -1 -44 15 -78 l22 -45
-28 -42 c-59 -90 -289 -390 -358 -467 -93 -104 -231 -229 -375 -338 -274 -208
-439 -404 -571 -677 -66 -137 -112 -275 -130 -388 -13 -80 -8 -333 7 -393 8
-29 11 -23 72 105 294 619 374 754 543 917 143 138 293 256 381 301 27 13 83
33 125 44 69 18 114 19 578 19 l503 0 85 -85 c66 -67 86 -93 91 -123 11 -63
56 -102 118 -102 54 0 107 52 107 105 0 44 -24 88 -57 106 -32 17 -90 15 -112
-5 -16 -14 -23 -10 -96 65 l-80 80 122 119 121 120 95 0 95 0 22 -34 c29 -48
96 -73 149 -57 110 32 139 156 55 230 -30 26 -43 31 -89 31 -59 0 -102 -26
-127 -77 -13 -26 -14 -26 -122 -24 l-108 2 -142 -140 -142 -141 -312 0 c-172
0 -312 3 -312 8 1 4 76 83 169 175 l167 169 61 -1 c51 0 65 -4 88 -25 52 -49
136 -46 180 6 44 52 45 100 5 151 -46 58 -141 53 -188 -9 -12 -16 -27 -35 -32
-41 -7 -8 -37 -13 -79 -13 l-69 0 -206 -211 -205 -212 -47 7 c-26 3 -134 6
-240 6 l-194 0 63 78 c34 42 99 132 144 198 l82 121 133 5 133 6 30 -29 c54
-51 119 -62 182 -32 129 61 73 263 -72 263 -67 0 -115 -43 -139 -122 -5 -16
-19 -18 -107 -18 -55 0 -99 4 -97 8 2 5 48 79 103 165 97 152 101 156 135 157
87 1 160 66 160 144 0 105 -136 182 -232 131z m-1078 -1490 c-11 -22 -20 -34
-20 -27 0 16 30 75 36 70 2 -3 -5 -22 -16 -43z"/>
<path d="M3369 6255 c-95 -52 -75 -200 30 -222 33 -7 50 -22 116 -103 92 -115
102 -123 126 -109 30 15 23 56 -14 92 -19 18 -55 56 -82 84 l-47 52 26 31 c82
99 -41 237 -155 175z"/>
<path d="M6724 6260 c-30 -12 -62 -56 -70 -95 -4 -25 0 -44 17 -74 l22 -40
-79 -88 c-44 -48 -84 -94 -88 -100 -10 -18 11 -53 32 -53 10 0 59 49 112 110
57 67 101 110 112 110 52 0 118 66 118 118 0 37 -28 86 -59 105 -31 18 -82 21
-117 7z"/>
<path d="M2155 6118 c-69 -24 -115 -93 -115 -172 0 -81 33 -134 105 -167 93
-43 196 -4 246 94 l19 37 159 0 159 0 12 -35 c36 -108 199 -150 286 -73 47 42
64 77 64 138 0 106 -76 180 -187 180 -25 0 -61 -8 -80 -17 -39 -18 -93 -85
-93 -115 0 -16 -9 -18 -73 -18 -41 0 -115 3 -165 6 l-90 7 -18 39 c-37 83
-142 126 -229 96z"/>
<path d="M7226 6120 c-37 -12 -85 -56 -102 -97 -23 -52 -18 -130 11 -179 42
-72 140 -103 218 -71 35 15 107 89 107 111 0 22 42 27 192 25 l140 -2 9 -26
c24 -62 110 -121 176 -121 51 1 113 30 146 69 90 107 8 287 -135 298 -77 6
-134 -26 -168 -95 l-25 -51 -166 0 -166 -1 -18 41 c-22 48 -64 83 -120 98 -46
13 -59 13 -99 1z"/>
<path d="M2152 5547 c-22 -23 -29 -68 -16 -102 9 -23 61 -47 87 -39 68 20 92
103 41 143 -36 28 -85 27 -112 -2z"/>
<path d="M7933 5555 c-27 -19 -39 -75 -24 -104 7 -12 23 -28 36 -37 49 -32
125 16 125 79 0 62 -84 99 -137 62z"/>
<path d="M2210 5143 c-27 -61 -84 -255 -105 -356 -62 -310 -60 -790 5 -1089
26 -120 82 -284 136 -398 43 -91 172 -296 180 -287 2 2 18 59 34 126 29 117
85 271 98 271 4 0 18 -21 32 -46 38 -73 166 -262 228 -338 310 -380 688 -676
1332 -1046 146 -83 282 -163 302 -176 l38 -24 6 27 c29 136 111 328 198 463
84 129 263 308 436 437 148 110 394 229 647 312 153 50 201 71 160 71 -7 0
-46 16 -87 36 -113 54 -222 169 -288 302 l-49 101 -53 -89 c-63 -107 -133
-196 -244 -311 l-83 -87 4 -98 5 -99 -41 -54 -41 -55 0 76 c0 41 -3 96 -6 121
l-7 46 -46 -38 c-207 -173 -522 -282 -775 -268 -79 4 -281 39 -292 50 -1 1 57
2 129 3 392 3 740 136 1014 391 89 82 202 214 268 313 117 175 173 334 181
515 4 109 4 110 -10 59 -79 -276 -232 -545 -422 -743 -168 -176 -309 -272
-513 -352 -157 -61 -274 -82 -466 -83 -185 0 -297 17 -452 69 -527 176 -1005
703 -1223 1349 -28 82 -49 150 -47 152 1 2 20 -38 41 -89 79 -190 267 -502
411 -682 144 -181 341 -369 490 -469 39 -26 120 -72 180 -101 189 -93 373
-135 591 -135 334 0 627 117 864 346 l90 87 -2 447 -3 448 -27 -47 c-15 -25
-78 -154 -139 -286 -61 -132 -136 -294 -167 -360 -71 -153 -124 -235 -196
-307 -69 -69 -136 -108 -236 -140 -63 -19 -96 -23 -210 -23 -149 1 -255 23
-405 86 -192 80 -452 296 -616 514 -34 46 -40 58 -28 66 32 20 342 145 459
185 8 3 -10 16 -45 32 -111 49 -299 154 -414 229 -199 132 -391 323 -530 527
-73 107 -251 421 -251 443 0 31 -21 19 -40 -24z"/>
<path d="M7893 5062 c-121 -249 -256 -444 -423 -612 -173 -174 -390 -325 -642
-448 -65 -31 -118 -60 -118 -63 0 -3 26 -13 58 -23 77 -25 412 -167 412 -176
0 -3 -35 -49 -78 -101 -168 -202 -353 -349 -566 -450 -60 -28 -273 -106 -475
-174 -393 -132 -488 -168 -651 -250 -315 -158 -594 -425 -734 -702 -44 -88
-82 -199 -94 -275 l-9 -56 42 -36 c44 -36 55 -37 55 -4 0 24 53 177 75 214 15
27 16 27 9 4 -3 -14 -8 -89 -11 -167 l-5 -142 103 -108 c57 -59 130 -146 161
-192 l57 -83 -6 208 c-9 313 11 447 91 615 46 99 106 182 190 264 149 146 318
245 656 385 377 157 439 184 556 246 315 166 548 358 766 632 198 248 383 557
473 790 53 136 37 63 -25 -115 -78 -224 -173 -421 -285 -588 -117 -174 -178
-249 -311 -381 -260 -259 -503 -409 -964 -599 -474 -195 -550 -233 -695 -340
-175 -129 -313 -329 -351 -504 -19 -92 -26 -278 -17 -460 l8 -154 39 59 c106
159 242 298 401 409 55 39 229 147 387 242 594 356 890 568 1162 833 199 194
320 346 456 574 l54 89 32 -89 c17 -49 44 -138 59 -199 15 -60 29 -112 32
-115 10 -11 132 169 181 266 43 85 106 273 130 385 49 225 57 312 57 599 -1
302 -12 397 -75 637 -33 125 -88 283 -98 283 -4 -1 -35 -58 -69 -128z m-2779
-2669 c-9 -15 -24 -46 -31 -68 -13 -37 -13 -38 -8 -6 5 32 40 101 52 101 3 0
-3 -12 -13 -27z"/>
<path d="M3952 4929 c-45 -23 -77 -59 -87 -102 l-7 -27 -147 0 -146 0 -17 30
c-32 56 -117 76 -175 40 -64 -39 -88 -111 -57 -175 47 -99 194 -100 241 0 l17
35 138 0 138 0 19 -37 c35 -68 104 -113 173 -113 70 1 159 65 174 126 6 24 6
24 143 24 154 0 196 -12 245 -71 32 -38 44 -64 61 -134 l12 -50 39 79 39 78
-59 54 c-33 29 -83 66 -110 81 -49 27 -58 28 -208 31 -119 3 -158 7 -158 16 0
7 -14 32 -31 55 -55 76 -153 101 -237 60z"/>
<path d="M6072 4929 c-43 -22 -74 -56 -92 -103 l-10 -26 -147 0 c-134 0 -153
-2 -198 -24 -62 -29 -129 -100 -162 -173 -20 -44 -26 -76 -30 -161 -5 -101 -8
-112 -47 -187 l-41 -80 -3 95 c-2 52 -2 168 0 258 2 89 0 161 -4 160 -13 -6
-105 -127 -153 -204 l-50 -79 5 -463 5 -463 26 28 c46 50 90 122 146 241 108
229 171 454 183 653 8 140 24 189 81 254 56 64 93 75 255 75 142 0 142 0 148
-24 15 -59 104 -125 169 -126 63 0 152 60 178 121 l11 29 142 0 142 0 13 -35
c17 -47 59 -75 115 -77 105 -2 170 111 116 199 -53 88 -161 94 -222 13 l-22
-30 -143 0 -143 0 -19 38 c-52 101 -153 138 -249 91z"/>
</g>
</svg>
